<?xml version="1.0" encoding="UTF-8"?>
<svg width="400" height="113.45" version="1.1" xmlns="http://www.w3.org/2000/svg" xmlns:cc="http://creativecommons.org/ns#" xmlns:dc="http://purl.org/dc/elements/1.1/" xmlns:rdf="http://www.w3.org/1999/02/22-rdf-syntax-ns#">
	<title>MariaDB EPGlv Logo</title>
	<g transform="matrix(.96065 0 0 .96065 -1573.8 -36.626)">
		<path d="m1812.2 38.13c-2.73 0.09-1.94 1.32-7.85 2.78-5.97 1.47-13.19 0.57-19.61 3.27-16.8 7.04-19.52 34.26-39.53 44.79-13.12 7.41-26.5 9.11-38.46 12.86-9.6 3.85-15.57 6.4-22.61 12.47-5.46 4.71-6.79 9.28-12.5 15.19-5.79 7.87-27.74 0.88-33.39 10.75 2.98 1.93 4.7 2.46 9.93 1.77-1.08 2.05-7.96 4.75-6.71 7.77 0 0 16.63 3.03 30.65-5.43 6.54-2.66 12.67-8.29 22.83-9.64 13.16-1.75 27.99 2.76 43.9 4.03-3.29 6.5-6.68 10.34-10.31 15.7-1.12 1.21 0.96 2.28 4.82 1.55 6.94-1.72 11.97-3.58 16.96-7.03 6.51-4.49 9.31-8.6 14.8-15.11 4.77 7.65 21.59 9.33 25.04 2.72-6.42-2.72-7.79-16.87-5.59-22.98 2.6-5.82 4.47-14.05 6.57-21.7 1.89-6.89 3.06-17.4 5.32-22.78 2.7-6.69 7.95-8.78 11.89-12.33s7.86-6.51 7.74-14.63c-0.04-2.64-1.4-4.1-3.89-4.02z" fill="#1f305f"/>
		<path d="m1643.3 148.38c10.31 0.31 13.11 0.04 21.26-3.5 6.93-3.01 16.2-11.12 24.39-13.74 12.02-3.86 24.91-3.28 37.7-1.77 4.28 0.51 8.58 1.22 11.65 0.89 4.79-2.94 5.02-10.92 7.99-11.56-0.81 15.44-7.43 25.32-14.05 34.28 13.95-2.46 23.27-11.17 28.91-21.95 1.71-3.27 4.55-8.62 5.85-12.3 1.03 2.44-1.34 3.99-0.23 6.65 8.98-7.41 13.22-15.85 16.86-28.21 4.22-14.3 8.55-26.59 11.27-30.82 2.65-4.13 6.78-6.68 10.55-9.32 4.28-3.01 8.11-6.14 8.77-11.87-4.52-0.42-5.56-1.46-6.23-3.74-2.26 1.27-4.34 1.55-6.69 1.62-2.04 0.06-4.28-0.03-7.02 0.25-22.63 2.32-23.68 24.44-40.13 40.68-1.06 1.03-2.87 2.55-4.07 3.45-5.08 3.79-10.52 5.87-16.25 8.06-9.28 3.54-18.08 4.57-26.78 7.63-6.39 2.24-12.33 4.81-17.58 8.4-1.31 0.9-3.09 2.5-4.23 3.43-3.08 2.52-5.1 5.31-7.06 8.19-2.02 2.96-3.96 6.01-6.93 8.92-4.81 4.72-22.77 1.38-29.1 5.76-0.7 0.49-1.27 1.07-1.65 1.77 3.45 1.57 5.76 0.61 9.73 1.04 0.49 3.79-8.22 6.03-6.93 7.76z" fill="#a0624d"/>
		<path d="m1786.7 52.65c3.2 2.78 9.92 0.55 8.72-4.98-4.98-0.42-7.86 1.27-8.72 4.98zm22.4-6.47c-0.85 1.79-2.48 4.09-2.48 8.64-0.01 0.78-0.59 1.32-0.6 0.11 0.04-4.45 1.22-6.37 2.47-8.89 0.57-1.03 0.92-0.61 0.61 0.14zm-0.9-0.67c-1.01 1.7-3.43 4.81-3.82 9.35-0.07 0.78-0.71 1.26-0.61 0.06 0.44-4.42 2.37-7.19 3.84-9.6 0.66-0.98 0.97-0.53 0.59 0.19zm-0.8-0.89c-1.15 1.61-4.87 5.35-5.65 9.83-0.14 0.77-0.81 1.19-0.61 0.01 0.81-4.37 4.02-7.81 5.68-10.08 0.74-0.93 1.02-0.45 0.58 0.24zm-0.7-1c-1.36 1.44-5.8 6.2-7.2 10.53-0.25 0.74-0.97 1.07-0.61-0.08 1.41-4.22 5.3-8.76 7.27-10.77 0.87-0.81 1.07-0.29 0.54 0.32z" fill="#1f305f"/>
	</g>
	<g fill="#1f305f">
		<path d="M329.218 35.17v29.991h-3.785v-5.139c-3.43 4.102-7.339 6.158-11.749 6.158s-8.137-1.566-11.182-4.688c-3.016-3.161-4.515-6.907-4.515-11.24 0-4.371 1.527-8.098 4.573-11.182 3.045-3.122 6.705-4.688 10.961-4.688 4.899 0 8.867 2.094 11.922 6.273V35.18h3.775m-3.554 15.12c0-3.43-1.153-6.311-3.449-8.646-2.296-2.373-5.12-3.554-8.473-3.554-3.314 0-6.119 1.22-8.415 3.67-2.296 2.411-3.449 5.274-3.449 8.588s1.172 6.196 3.506 8.646c2.334 2.411 5.12 3.612 8.358 3.612 3.276 0 6.081-1.172 8.415-3.506 2.344-2.325 3.506-5.264 3.506-8.809m11.223 14.86V24.612h8.415c5.764 0 9.981.432 12.652 1.297 2.709.826 5.043 2.161 7.003 4.006 1.96 1.806 3.468 4.025 4.515 6.667 1.057 2.632 1.585 5.725 1.585 9.261 0 3.506-.826 6.811-2.488 9.943-1.623 3.084-3.843 5.418-6.667 7.003-2.786 1.585-6.811 2.373-12.085 2.373h-12.93m3.9-3.843h4.688c4.899 0 8.435-.24 10.615-.73 2.219-.49 4.16-1.451 5.822-2.882a14.47 14.47 0 0 0 3.785-5.312c.865-2.075 1.297-4.438 1.297-7.118 0-2.671-.509-5.139-1.527-7.397-.98-2.258-2.392-4.121-4.236-5.591s-4.025-2.45-6.552-2.94c-2.488-.528-6.158-.788-11.009-.788h-2.882v32.758m-54.268-34.507c0-.865.298-1.623.903-2.258.644-.644 1.393-.961 2.258-.961a2.96 2.96 0 0 1 2.258.961 2.96 2.96 0 0 1 .961 2.258c0 .865-.317 1.623-.961 2.258-.605.605-1.355.903-2.258.903-.865 0-1.623-.317-2.258-.961-.605-.644-.903-1.374-.903-2.2m1.239 8.358h3.9v29.991h-3.9V35.17M181.025 65.161l5.764-40.549h.624l16.485 33.258 16.379-33.267h.624l5.822 40.549h-4.006l-3.958-29.031-14.343 29.031h-1.018L188.883 35.9l-3.958 29.252h-3.9"/>
		<path d="M261.88 35.17v29.991h-3.785v-5.139c-3.43 4.102-7.339 6.158-11.749 6.158s-8.137-1.566-11.182-4.688c-3.016-3.161-4.515-6.907-4.515-11.24 0-4.371 1.527-8.098 4.573-11.182 3.045-3.122 6.705-4.688 10.961-4.688 4.899 0 8.867 2.094 11.922 6.273V35.18h3.775m-3.554 15.12c0-3.43-1.153-6.311-3.449-8.646-2.296-2.373-5.12-3.554-8.473-3.554-3.314 0-6.119 1.22-8.415 3.67-2.296 2.411-3.449 5.274-3.449 8.588s1.162 6.196 3.506 8.646c2.334 2.411 5.12 3.612 8.358 3.612 3.276 0 6.081-1.172 8.415-3.506 2.334-2.325 3.506-5.264 3.506-8.809m10.091-15.131h3.958v4.352c1.057-1.768 2.075-3.064 3.045-3.9 1.018-.826 2.123-1.239 3.333-1.239 1.239 0 2.488.336 3.727 1.018l-2.037 3.276c-.567-.336-1.153-.509-1.748-.509-1.162 0-2.277.605-3.333 1.806-1.018 1.201-1.768 2.767-2.258 4.688-.49 1.883-.73 5.332-.73 10.337v10.164h-3.958V35.17m107.257-10.567h8.021c4.256 0 7.474.865 9.655 2.594 2.219 1.691 3.333 4.14 3.333 7.339a9.35 9.35 0 0 1-1.355 4.909c-.865 1.47-2.142 2.651-3.843 3.554 2.786.903 4.899 2.258 6.321 4.064 1.47 1.806 2.2 3.958 2.2 6.436 0 3.353-1.22 6.139-3.67 8.358-2.45 2.181-5.61 3.276-9.491 3.276h-11.172v-40.53m4.006 3.958v12.988h2.315c3.535 0 6.177-.567 7.906-1.691 1.729-1.134 2.594-2.901 2.594-5.312 0-3.987-2.709-5.985-8.137-5.985h-4.678m0 17.061v15.582h5.024c2.901 0 5.024-.279 6.379-.845 1.393-.605 2.527-1.508 3.391-2.709.865-1.239 1.297-2.507 1.297-3.785s-.24-2.411-.73-3.391-1.22-1.844-2.2-2.594c-.941-.749-2.094-1.316-3.449-1.691-1.316-.375-3.804-.567-7.455-.567h-2.258"/>
	</g>
	<path transform="matrix(.88761 -.3674 .3674 .88761 -18.2 -25.076)" d="M40.585 138.78l-.732-.093 1.236-17.385.732.093zm-1.463-.186l-.732-.093 1.236-17.385.732.093zm-1.463-.186l-.732-.093 1.236-17.385.732.093zm4.658-3.222l7.784.989-.054.756-7.784-.989-.054.756 7.784.989-.054.756-7.784-.989-.054.756 7.784.989-.054.756-8.515-1.082 1.236-17.385 8.515 1.082-.054.756-7.784-.989-.054.756 7.784.989-.054.756-7.784-.989-.054.756 7.784.989-.054.756-7.784-.989-.215 3.023 3.993.507-.054.756-3.993-.507-.054.756 3.993.507-.054.756-3.993-.507-.054.756 3.993.507-.054.756-3.993-.507zm18.684-1.906l4.545.408q1.12.1 1.982-.563.875-.673 1.041-2.02.125-1.008-.593-1.877-.716-.88-1.76-.973l-6.719-.603-1.699 13.754-.783-.07 1.794-14.518 7.502.673q1.37.123 2.287 1.246.917 1.123.754 2.439-.201 1.624-1.334 2.52-1.132.886-2.567.757l-4.545-.408zm-.189 1.528l4.545.408q1.131.101 2.153-.343 1.034-.454 1.746-1.41.723-.955.879-2.217.202-1.634-.926-3.002-1.117-1.366-2.803-1.518l-8.285-.743-1.888 15.282-.783-.07 1.983-16.046 9.068.814q1.316.118 2.395.902 1.079.784 1.624 1.981.556 1.198.398 2.471-.178 1.443-1.021 2.57-.841 1.116-2.075 1.67-1.222.545-2.559.425l-4.545-.408zm-.189 1.528l4.545.408q1.163.104 2.284-.246 1.122-.361 1.999-1.055.889-.704 1.492-1.755.604-1.062.757-2.303.184-1.486-.449-2.862-.631-1.387-1.884-2.283-1.24-.905-2.773-1.043l-9.851-.884-2.077 16.81-.783-.07 2.172-17.574 10.633.954q1.74.156 3.152 1.184 1.413 1.017 2.132 2.584.719 1.567.51 3.254-.186 1.507-.876 2.733-.689 1.215-1.695 1.972-1.006.757-2.26 1.117-1.252.349-2.579.23l-4.545-.408zm-1.259 5.209l-.783-.07 1.605-12.99 5.936.533q.772.069 1.258.671.497.603.405 1.345-.254 2.059-2.146 1.889l-4.545-.408.094-.764 4.545.408q.522.047.851-.213.329-.26.418-.982.058-.467-.23-.804-.277-.336-.745-.378l-5.154-.462zm29.48-8.235l.785-.084.532 8.905-.785.084zm3.14-.335l.785-.084.532 8.905-.785.084zm-1.57.167l.785-.084.532 8.905-.785.084zm-2.355.251l.532 8.905q-2.027.962-4.251 1.199-1.93.206-3.736-.275-1.806-.481-3.218-1.522-1.412-1.051-2.323-2.715-.901-1.675-1.023-3.714-.113-1.884.559-3.675.682-1.803 1.916-3.178 1.245-1.386 3.011-2.31 1.776-.935 3.771-1.148 2.486-.265 4.687.598 2.202.863 3.665 2.593l-.63.471q-1.345-1.587-3.378-2.375-2.022-.789-4.3-.546-1.831.195-3.47 1.054-1.628.847-2.77 2.119-1.142 1.272-1.767 2.934-.614 1.651-.511 3.38.111 1.863.938 3.402.838 1.537 2.124 2.498 1.297.96 2.959 1.415 1.661.444 3.416.258 1.842-.196 3.51-.923l-.042-.71q-1.594.688-3.381.879-1.297.138-2.549-.07-1.242-.22-2.328-.777-1.076-.569-1.916-1.412-.83-.854-1.351-2.042-.51-1.199-.594-2.599-.126-2.11.868-4.019 1.005-1.91 2.84-3.152 1.834-1.252 4.069-1.491 2.093-.223 3.947.512 1.853.724 3.081 2.179l-.63.471q-1.11-1.311-2.794-1.961-1.674-.661-3.56-.46-1.515.162-2.867.865-1.351.704-2.298 1.758-.936 1.043-1.447 2.413-.511 1.37-.425 2.801.077 1.287.537 2.377.47 1.079 1.219 1.849.758.758 1.732 1.266.973.497 2.093.689 1.13.19 2.297.066 1.81-.193 3.41-.944l-.044-.741q-1.578.759-3.333.946-1.33.142-2.565-.151-1.236-.303-2.231-.985-.984-.682-1.613-1.838-.629-1.155-.716-2.617-.102-1.709.705-3.256.807-1.547 2.294-2.555 1.487-1.008 3.296-1.201 1.69-.18 3.184.406 1.505.585 2.497 1.764l-.63.471q-.873-1.026-2.198-1.537-1.315-.523-2.808-.364-1.603.171-2.909 1.066-1.308.885-2.027 2.247-.709 1.36-.618 2.874.063 1.05.433 1.922.37.872.966 1.472.595.6 1.364.984.78.383 1.655.528.875.135 1.801.036 1.842-.196 3.404-1.057l-.042-.71q-1.509.814-3.308 1.005-1.036.11-1.969-.09-.934-.201-1.709-.698-.765-.499-1.257-1.389-.482-.902-.552-2.086-.058-.978.292-1.906.35-.939.998-1.66.648-.722 1.563-1.203.926-.482 1.961-.592 1.297-.138 2.444.32 1.146.448 1.902 1.351l-.619.47q-.638-.761-1.615-1.133-.966-.384-2.067-.266-1.788.191-2.981 1.52-1.193 1.329-1.092 3.017.062 1.04.47 1.804.407.754 1.057 1.172.661.406 1.438.572.788.154 1.671.06 1.81-.193 3.326-1.07l-.224-3.747zm5.777-9.203l.773-.299 6.106 16.105-.773.299zm4.641-1.792l.773-.299 4.579 12.078 5.704-2.203.305.805-5.704 2.203.305.805 5.704-2.203.305.805-5.704 2.203.305.805 5.704-2.203.305.805-6.478 2.502zm-1.547.597l.773-.299 6.106 16.105-.773.299zm-1.547.597l.773-.299 6.106 16.105-.773.299zm7.837-1.682l.682-.484 13.429 10.216-4.146-16.807.673-.478 4.448 18.019-.682.484zm1.355-.962l.673-.478 10.799 8.216.244 1.18zm1.355-.962l.682-.484 8.82 6.724.316 1.232zm1.355-.962l.673-.478 6.829 5.196.329 1.252zm9.956-7.069l.682-.484 4.439 18.025-.673.478zm-1.346.956l.673-.478 4.439 18.025-.673.478zm-1.364.968l.682-.484 4.439 18.025-.673.478z" opacity=".3"/>
	<path d="m248.7 84.546h-9.536v7.144h11.147v3.221h-15.182v-23.218h15.07v3.253h-11.035v6.411h9.536zm16.602 1.74v8.627h-4.035v-23.219h8.883q3.891 0 6.172 2.025 2.296 2.025 2.296 5.358 0 3.413-2.248 5.31-2.233 1.898-6.267 1.898zm0-3.237h4.848q2.153 0 3.285-1.005 1.132-1.021 1.132-2.934 0-1.882-1.148-2.998-1.148-1.132-3.157-1.164h-4.96zm39.064 8.851q-1.26 1.643-3.492 2.488-2.233 0.845-5.071 0.845-2.918 0-5.167-1.324-2.248-1.324-3.476-3.779-1.212-2.472-1.26-5.757v-1.818q0-5.262 2.52-8.213 2.52-2.966 7.032-2.966 3.875 0 6.155 1.914t2.743 5.518h-3.955q-0.67-4.194-4.864-4.194-2.711 0-4.13 1.961-1.403 1.946-1.451 5.725v1.786q0 3.763 1.579 5.853 1.595 2.073 4.417 2.073 3.094 0 4.401-1.403v-4.545h-4.784v-3.062h8.803zm15.059 3.013h-3.875v-24.495h3.875zm18.533-4.914 3.652-12.343h4.003l-5.98 17.254h-3.365l-6.028-17.254h4.019z" fill="#a0624d"/>
	<metadata>
		<rdf:RDF>
			<cc:Work rdf:about="">
				<cc:license rdf:resource="http://creativecommons.org/licenses/by-sa/4.0/"/>
				<dc:title>MariaDB EPGlv Logo</dc:title>
			</cc:Work>
			<cc:License rdf:about="http://creativecommons.org/licenses/by-sa/4.0/">
				<cc:permits rdf:resource="http://creativecommons.org/ns#Reproduction"/>
				<cc:permits rdf:resource="http://creativecommons.org/ns#Distribution"/>
				<cc:requires rdf:resource="http://creativecommons.org/ns#Notice"/>
				<cc:requires rdf:resource="http://creativecommons.org/ns#Attribution"/>
				<cc:permits rdf:resource="http://creativecommons.org/ns#DerivativeWorks"/>
				<cc:requires rdf:resource="http://creativecommons.org/ns#ShareAlike"/>
			</cc:License>
		</rdf:RDF>
	</metadata>
</svg>
